# xmcd
#
# Track frame offsets:
#	183
#	17177
#	38421
#	55978
#	89756
#	114848
#	135673
#	146213
#	165095
#	188176
#	204649
#	222504
#	239841
#	259357
#	289080
#
# Disc length: 4121 seconds
#
# Revision: 0
# Processed by: cddbd v1.5.1PL0 Copyright (c) Steve Scherf et al.
# Submitted via: EasyCDDAExtractor 8.2.1.1
#
DISCID=e610170f
DTITLE=Calvin Russell - Sounds From The Fourth World
DYEAR=1900
DGENRE=
TTITLE0=You're My Baby
TTITLE1=Last Night
TTITLE2=One Meat Ball
TTITLE3=Crossroad
TTITLE4=Maybe Someday
TTITLE5=Rockin' The Republicans
TTITLE6=Baby I Love You
TTITLE7=Love Stealer
TTITLE8=You Don't Know
TTITLE9=Down Down Down
TTITLE10=One Meat Ball (Acoustic)
TTITLE11=Stripe On The Nine Ball
TTITLE12=You're My Baby
TTITLE13=My Way
TTITLE14=Baby What You Want Me To Do
EXTD=
EXTT0=
EXTT1=
EXTT2=
EXTT3=
EXTT4=
EXTT5=
EXTT6=
EXTT7=
EXTT8=
EXTT9=
EXTT10=
EXTT11=
EXTT12=
EXTT13=
EXTT14=
PLAYORDER=
